<svg xmlns="http://www.w3.org/2000/svg" width="512" height="512" viewBox="0 0 128 128"><g><path d="M30.227,39.083H77.56a1.75,1.75,0,0,0,0-3.5H30.227a1.75,1.75,0,0,0,0,3.5Z"/><path d="M30.227,49.424H77.56a1.75,1.75,0,0,0,0-3.5H30.227a1.75,1.75,0,1,0,0,3.5Z"/><path d="M30.227,59.764H77.56a1.75,1.75,0,0,0,0-3.5H30.227a1.75,1.75,0,1,0,0,3.5Z"/><path d="M30.227,70.1H77.56a1.75,1.75,0,0,0,0-3.5H30.227a1.75,1.75,0,0,0,0,3.5Z"/><path d="M115.667,97.978A25.317,25.317,0,0,0,95.45,73.213V25.344c0-.011,0-.022,0-.033a1.745,1.745,0,0,0-.529-1.251L76.148,5.284a1.742,1.742,0,0,0-.913-.5c-.051-.01-.1-.01-.155-.015a1.651,1.651,0,0,0-.186-.019H14.08A1.75,1.75,0,0,0,12.33,6.5v115a1.75,1.75,0,0,0,1.75,1.75H93.7a1.732,1.732,0,0,0,1.09-.391A25.308,25.308,0,0,0,115.667,97.978ZM76.644,10.728,89.476,23.561H76.644ZM15.83,119.75V8.25H73.144V25.311a1.75,1.75,0,0,0,1.75,1.75H91.95v45.7c-.515-.032-1.033-.053-1.556-.053A25.13,25.13,0,0,0,76.407,76.94H30.23a1.75,1.75,0,0,0,0,3.5H72.221A25.389,25.389,0,0,0,67.5,87.28H30.23a1.75,1.75,0,0,0,0,3.5H66.171a25.157,25.157,0,0,0-1.041,6.85H30.23a1.75,1.75,0,1,0,0,3.5h35.1a25.31,25.31,0,0,0,12.259,18.62Zm74.564,0a21.773,21.773,0,1,1,21.773-21.772A21.8,21.8,0,0,1,90.394,119.75Z"/><path d="M107.5,102.159a1.751,1.751,0,0,0-2.234,1.066,15.815,15.815,0,0,1-5.129,7.145,1.75,1.75,0,1,0,2.167,2.748,19.306,19.306,0,0,0,6.262-8.725A1.75,1.75,0,0,0,107.5,102.159Z"/><path d="M100.792,87.364c-2.97-.091-7.774-.842-9.162-2.227a1.75,1.75,0,0,0-2.473,0C87.77,86.522,82.965,87.273,80,87.364a1.751,1.751,0,0,0-1.7,1.749c0,17.654,11.019,21.934,11.488,22.108a1.763,1.763,0,0,0,1.215,0c.469-.174,11.488-4.454,11.488-22.108A1.751,1.751,0,0,0,100.792,87.364ZM90.4,107.65c-1.958-1.047-8.037-5.222-8.562-16.894,2.25-.195,6.089-.735,8.559-2.2,2.469,1.468,6.309,2.008,8.559,2.2C98.431,102.466,92.378,106.6,90.4,107.65Z"/><path d="M30.227,22.561h2.75v2.75a1.75,1.75,0,0,0,3.5,0v-2.75h2.75a1.75,1.75,0,0,0,0-3.5h-2.75v-2.75a1.75,1.75,0,0,0-3.5,0v2.75h-2.75a1.75,1.75,0,1,0,0,3.5Z"/></g></svg>
